# xmcd
#
# Track frame offsets:
#	150
#	17364
#	32605
#	49989
#	64926
#	83435
#	99050
#	116750
#	135069
#	150980
#	166049
#	183014
#	203629
#	219084
#	235185
#	252642
#	282446
#	310165
#
# Disc length: 4336 seconds
#
# Revision: 1
# Processed by: cddbd v1.5PL3 Copyright (c) Steve Scherf et al.
# Submitted via: audiograbber 1.83.01
#
DISCID=d410ee12
DTITLE=Steps - Buzz
DYEAR=2001
DGENRE=Pop
TTITLE0=Better the devil you know
TTITLE1=Stomp
TTITLE2=Summer of love
TTITLE3=It's the way you make me feel
TTITLE4=You'll be sorry
TTITLE5=Learn to love again
TTITLE6=Never get over you
TTITLE7=Hand on your heart
TTITLE8=Happy go lucky
TTITLE9=Buzz
TTITLE10=Here and now
TTITLE11=paradise lost
TTITLE12=Turn around
TTITLE13=Wouldn't hurt so bad
TTITLE14=If you believe
TTITLE15=1
TTITLE16=2
TTITLE17=3
EXTD=
EXTT0=
EXTT1=
EXTT2=
EXTT3=
EXTT4=
EXTT5=
EXTT6=
EXTT7=
EXTT8=
EXTT9=
EXTT10=
EXTT11=
EXTT12=
EXTT13=
EXTT14=
EXTT15=
EXTT16=
EXTT17=
PLAYORDER=
